<svg xmlns="http://www.w3.org/2000/svg" xmlns:xlink="http://www.w3.org/1999/xlink" version="1.1" x="0px" y="0px" width="512px" height="512px" viewBox="0 0 512 512" enable-background="new 0 0 512 512" xml:space="preserve"><path d="M299.823 364.41h-87.646c-6.144 0-11.124 4.98-11.124 11.123s4.98 11.1 11.1 11.122h87.647 c6.143 0 11.123-4.979 11.123-11.122S305.967 364.4 299.8 364.41z M297.822 401.443h-83.645c-6.143 0-11.123 4.98-11.123 11.1 s4.98 11.1 11.1 11.123h83.646c6.142 0 11.122-4.98 11.122-11.123S303.965 401.4 297.8 401.443z M214.75 438 C236.406 458 238.6 462 247.3 462h16.65c8.45 0 10.532-3.727 33.319-24.039H214.75z M382.621 171.5 c0 75.31-64.767 117.514-64.767 176.943h-29.493c0.025-73.246 64.232-111.827 64.232-176.943c0-121.891-193.188-122.081-193.188 0 c0 65.1 63.1 102 64.6 176.943h-29.818c0-59.43-64.767-101.634-64.767-176.943 C129.379 9.6 382.6 9.4 382.6 171.454z M238.147 289.621l68.795-101.038h-40.009l19.871-69.381l-71.832 99.922h43.573 L238.147 289.621z"/></svg>